                        =!DK GROUP HD BLURAY RELEAESEES!=
 
===================================================================================

      	
                The Parent Trap(1998)DVDRip In[Hindi-Eng]By !!!dip


===================================================================================

Storyline:

Identical twins Hallie and Annie were separated at birth when their parents divorced. After the two meet at summer camp, they begin plotting to reunite their estranged parents.

Cast:

Lindsay Lohan............	Hallie Parker / Annie James
Dennis Quaid.............	Nick Parker
Natasha Richardson.......	Elizabeth James
Elaine Hendrix...........	Meredith Blake
Lisa Ann Walter..........	Chessy
Simon Kunz...............	Martin
Polly Holliday...........	Marva Kulp, Sr.
Maggie Wheeler...........	Marva Kulp, Jr.
Ronnie Stevens...........	Grandpa Charles James
Joanna Barnes............	Vicki Blake
Hallie Meyers-Shyer......	Lindsay
Maggie Emma Thomas.......	Zoe
Courtney Woods...........	Nicole
Kat Graham...............	Jackie (as Katerina Graham)
Michael Lohan............	Lost Boy at Camp


Directors :Nancy Meyers
Writers :Erich Kästner (book), David Swift (screenplay)
Stars:Lindsay Lohan, Dennis Quaid and Natasha Richardson
Genre: Adventure | Comedy | Drama
Language:[English-Hindi]
Format :Color, Dubbed,Widescreen
Release Date :29 July 1998 (USA)
Run Time :02H:02M:58S
Encoder:Deep Shikha




Video Specifications:


Video
ID : 1
Format : MPEG-4 Visual
Format profile : Advanced Simple@L5
Format settings, BVOP : Yes
Format settings, QPel : No
Format settings, GMC : No warppoints
Format settings, Matrix : Default (MPEG)
Codec ID : XVID
Codec ID/Hint : XviD
Duration : 2h 2mn
Bit rate : 639 Kbps
Width : 512 pixels
Height : 288 pixels
Display aspect ratio : 16:9
Frame rate : 25.000 fps
Color space : YUV
Chroma subsampling : 4:2:0
Bit depth : 8 bits
Scan type : Progressive
Compression mode : Lossy
Bits/(Pixel*Frame) : 0.173
Stream size : 562 MiB (63%)
Title : !!!dip
Team : DK Group HD Bluray Releases




Audio Specifications:


Audio #1
ID : 2
Format : MPEG Audio
Format version : Version 1
Format profile : Layer 3
Mode : Joint stereo
Mode extension : MS Stereo
Muxing mode : Header stripping
Codec ID : A_MPEG/L3
Codec ID/Hint : MP3
Duration : 2h 2mn
Bit rate mode : Constant
Bit rate : 128 Kbps
Channel(s) : 2 channels
Sampling rate : 48.0 KHz
Compression mode : Lossy
Stream size : 113 MiB (13%)
Title : !!!dip
Writing library : LAME3.97b
Encoding settings : -m j -V 4 -q 2 -lowpass 17 -b 128
Language : English

Audio #2
ID : 3
Format : MPEG Audio
Format version : Version 1
Format profile : Layer 2
Muxing mode : Header stripping
Codec ID : A_MPEG/L2
Codec ID/Hint : MP2
Duration : 2h 2mn
Bit rate mode : Constant
Bit rate : 224 Kbps
Channel(s) : 2 channels
Sampling rate : 48.0 KHz
Compression mode : Lossy
Language : Hindi




SAMPLE IMAGE:
 
http://www.pix2links.com/image/c2qP0.jpg
 
http://www.pix2links.com/image/CQFXU.jpg
 
http://www.pix2links.com/image/Ib9tJ.jpg
 
http://www.pix2links.com/image/HoGiE.jpg
 
http://www.pix2links.com/image/TJwxe.jpg
 
http://www.pix2links.com/image/whGEl.jpg


VIDEO SAMPLE IS AVAILABLE

				
					